%TF.GenerationSoftware,KiCad,Pcbnew,6.0.9+dfsg-1~bpo11+1*%
%TF.CreationDate,2023-01-21T22:29:26-05:00*%
%TF.ProjectId,cc-19-badge,63632d31-392d-4626-9164-67652e6b6963,rev?*%
%TF.SameCoordinates,Original*%
%TF.FileFunction,Legend,Top*%
%TF.FilePolarity,Positive*%
%FSLAX46Y46*%
G04 Gerber Fmt 4.6, Leading zero omitted, Abs format (unit mm)*
G04 Created by KiCad (PCBNEW 6.0.9+dfsg-1~bpo11+1) date 2023-01-21 22:29:26*
%MOMM*%
%LPD*%
G01*
G04 APERTURE LIST*
%ADD10C,0.254000*%
%ADD11C,0.150000*%
%ADD12C,0.200000*%
%ADD13C,0.120000*%
G04 APERTURE END LIST*
D10*
%TO.C,S1*%
X105652380Y-126762047D02*
X105833809Y-126822523D01*
X106136190Y-126822523D01*
X106257142Y-126762047D01*
X106317619Y-126701571D01*
X106378095Y-126580619D01*
X106378095Y-126459666D01*
X106317619Y-126338714D01*
X106257142Y-126278238D01*
X106136190Y-126217761D01*
X105894285Y-126157285D01*
X105773333Y-126096809D01*
X105712857Y-126036333D01*
X105652380Y-125915380D01*
X105652380Y-125794428D01*
X105712857Y-125673476D01*
X105773333Y-125613000D01*
X105894285Y-125552523D01*
X106196666Y-125552523D01*
X106378095Y-125613000D01*
X107587619Y-126822523D02*
X106861904Y-126822523D01*
X107224761Y-126822523D02*
X107224761Y-125552523D01*
X107103809Y-125733952D01*
X106982857Y-125854904D01*
X106861904Y-125915380D01*
D11*
%TO.C,*%
%TO.C,U1*%
X118110095Y-108374380D02*
X118110095Y-109183904D01*
X118157714Y-109279142D01*
X118205333Y-109326761D01*
X118300571Y-109374380D01*
X118491047Y-109374380D01*
X118586285Y-109326761D01*
X118633904Y-109279142D01*
X118681523Y-109183904D01*
X118681523Y-108374380D01*
X119681523Y-109374380D02*
X119110095Y-109374380D01*
X119395809Y-109374380D02*
X119395809Y-108374380D01*
X119300571Y-108517238D01*
X119205333Y-108612476D01*
X119110095Y-108660095D01*
D12*
%TO.C,S1*%
X103142000Y-123911000D02*
X111742000Y-123911000D01*
X103142000Y-128311000D02*
X111742000Y-128311000D01*
X104958280Y-123330000D02*
G75*
G03*
X104958280Y-123330000I-99280J0D01*
G01*
D13*
%TO.C,U1*%
X116222000Y-109922000D02*
X116222000Y-127822000D01*
X117872000Y-109922000D02*
X116222000Y-109922000D01*
X121522000Y-109922000D02*
X119872000Y-109922000D01*
X116222000Y-127822000D02*
X121522000Y-127822000D01*
X121522000Y-127822000D02*
X121522000Y-109922000D01*
X117872000Y-109922000D02*
G75*
G03*
X119872000Y-109922000I1000000J0D01*
G01*
%TD*%
M02*
