  0
SECTION
  2
HEADER
  9
$ANGBASE
  50
0.0
  9
$ANGDIR
  70
1
  9
$MEASUREMENT
  70
1
  0
ENDSEC
  0
SECTION
  2
TABLES
  0
TABLE
  2
LTYPE
  70
4
  0
LTYPE
  5
40F
  2
CONTINUOUS
  70
0
  3
Solid line
  72
65
  73
0
  40
0.0
  0
LTYPE
  5
410
  2
DASHDOT
 70
0
  3
Dash Dot ____ _ ____ _
 72
65
 73
4
 40
2.0
 49
1.25
 49
-0.25
 49
0.25
 49
-0.25
  0
LTYPE
  5
411
  2
DASHED
 70
0
  3
Dashed __ __ __ __ __
 72
65
 73
2
 40
0.75
 49
0.5
 49
-0.25
  0
LTYPE
  5
43B
  2
DOTTED
 70
0
  3
Dotted .  .  .  .
 72
65
 73
2
 40
0.2
 49
0.0
 49
-0.2
  0
ENDTAB
  0
TABLE
  2
STYLE
  70
4
  0
STYLE
  2
KICAD
  70
0
  40
0
  41
1
  42
1
  50
0
  71
0
  3
isocp.shx
  0
STYLE
  2
KICADB
  70
0
  40
0
  41
1
  42
1
  50
0
  71
0
  3
isocp.shx
  0
STYLE
  2
KICADI
  70
0
  40
0
  41
1
  42
1
  50
15
  71
0
  3
isocp.shx
  0
STYLE
  2
KICADBI
  70
0
  40
0
  41
1
  42
1
  50
15
  71
0
  3
isocp.shx
  0
ENDTAB
  0
TABLE
  2
LAYER
  70
1
  0
LAYER
  2
BLACK
  70
0
  62
7
  6
CONTINUOUS
  0
ENDTAB
  0
ENDSEC
  0
SECTION
  2
ENTITIES
0
ARC
8
BLACK
10
138.176
20
-43.307
40
3.302
50
-45
51
90
0
ARC
8
BLACK
10
95.885
20
-43.307
40
3.302
50
-270
51
-135
0
LINE
8
BLACK
6
CONTINUOUS
10
140.511
20
-45.6419
11
144.018
21
-52.578
0
LINE
8
BLACK
6
CONTINUOUS
10
95.885
20
-40.005
11
138.176
21
-40.005
0
LINE
8
BLACK
6
CONTINUOUS
10
144.018
20
-134.112
11
138.176
21
-139.954
0
LINE
8
BLACK
6
CONTINUOUS
10
95.885
20
-139.954
11
138.176
21
-139.954
0
LINE
8
BLACK
6
CONTINUOUS
10
90.043
20
-52.578
11
93.5501
21
-45.6419
0
LINE
8
BLACK
6
CONTINUOUS
10
144.018
20
-52.578
11
144.018
21
-134.112
0
LINE
8
BLACK
6
CONTINUOUS
10
90.043
20
-134.112
11
95.885
21
-139.954
0
LINE
8
BLACK
6
CONTINUOUS
10
90.043
20
-52.578
11
90.043
21
-134.112
0
LINE
8
BLACK
6
CONTINUOUS
10
105.042
20
-125.711
11
105.842
21
-126.511
0
LINE
8
BLACK
6
CONTINUOUS
10
105.842
20
-125.711
11
105.042
21
-126.511
0
LINE
8
BLACK
6
CONTINUOUS
10
107.042
20
-125.711
11
107.842
21
-126.511
0
LINE
8
BLACK
6
CONTINUOUS
10
107.842
20
-125.711
11
107.042
21
-126.511
0
LINE
8
BLACK
6
CONTINUOUS
10
109.042
20
-125.711
11
109.842
21
-126.511
0
LINE
8
BLACK
6
CONTINUOUS
10
109.842
20
-125.711
11
109.042
21
-126.511
0
LINE
8
BLACK
6
CONTINUOUS
10
114.662
20
-110.852
11
115.462
21
-111.652
0
LINE
8
BLACK
6
CONTINUOUS
10
115.462
20
-110.852
11
114.662
21
-111.652
0
LINE
8
BLACK
6
CONTINUOUS
10
114.662
20
-113.392
11
115.462
21
-114.192
0
LINE
8
BLACK
6
CONTINUOUS
10
115.462
20
-113.392
11
114.662
21
-114.192
0
LINE
8
BLACK
6
CONTINUOUS
10
114.662
20
-115.932
11
115.462
21
-116.732
0
LINE
8
BLACK
6
CONTINUOUS
10
115.462
20
-115.932
11
114.662
21
-116.732
0
LINE
8
BLACK
6
CONTINUOUS
10
114.662
20
-118.472
11
115.462
21
-119.272
0
LINE
8
BLACK
6
CONTINUOUS
10
115.462
20
-118.472
11
114.662
21
-119.272
0
LINE
8
BLACK
6
CONTINUOUS
10
114.662
20
-121.012
11
115.462
21
-121.812
0
LINE
8
BLACK
6
CONTINUOUS
10
115.462
20
-121.012
11
114.662
21
-121.812
0
LINE
8
BLACK
6
CONTINUOUS
10
114.662
20
-123.552
11
115.462
21
-124.352
0
LINE
8
BLACK
6
CONTINUOUS
10
115.462
20
-123.552
11
114.662
21
-124.352
0
LINE
8
BLACK
6
CONTINUOUS
10
114.662
20
-126.092
11
115.462
21
-126.892
0
LINE
8
BLACK
6
CONTINUOUS
10
115.462
20
-126.092
11
114.662
21
-126.892
0
LINE
8
BLACK
6
CONTINUOUS
10
122.282
20
-110.852
11
123.082
21
-111.652
0
LINE
8
BLACK
6
CONTINUOUS
10
123.082
20
-110.852
11
122.282
21
-111.652
0
LINE
8
BLACK
6
CONTINUOUS
10
122.282
20
-113.392
11
123.082
21
-114.192
0
LINE
8
BLACK
6
CONTINUOUS
10
123.082
20
-113.392
11
122.282
21
-114.192
0
LINE
8
BLACK
6
CONTINUOUS
10
122.282
20
-115.932
11
123.082
21
-116.732
0
LINE
8
BLACK
6
CONTINUOUS
10
123.082
20
-115.932
11
122.282
21
-116.732
0
LINE
8
BLACK
6
CONTINUOUS
10
122.282
20
-118.472
11
123.082
21
-119.272
0
LINE
8
BLACK
6
CONTINUOUS
10
123.082
20
-118.472
11
122.282
21
-119.272
0
LINE
8
BLACK
6
CONTINUOUS
10
122.282
20
-121.012
11
123.082
21
-121.812
0
LINE
8
BLACK
6
CONTINUOUS
10
123.082
20
-121.012
11
122.282
21
-121.812
0
LINE
8
BLACK
6
CONTINUOUS
10
122.282
20
-123.552
11
123.082
21
-124.352
0
LINE
8
BLACK
6
CONTINUOUS
10
123.082
20
-123.552
11
122.282
21
-124.352
0
LINE
8
BLACK
6
CONTINUOUS
10
122.282
20
-126.092
11
123.082
21
-126.892
0
LINE
8
BLACK
6
CONTINUOUS
10
123.082
20
-126.092
11
122.282
21
-126.892
0
CIRCLE
8
BLACK
10
103.342
20
-126.111
40
0.75
0
CIRCLE
8
BLACK
10
111.542
20
-126.111
40
0.75
0
LINE
8
BLACK
6
CONTINUOUS
10
92.5692
20
-143.109
11
92.5692
21
-141.109
0
LINE
8
BLACK
6
CONTINUOUS
10
92.5692
20
-141.109
11
93.0454
21
-141.109
0
LINE
8
BLACK
6
CONTINUOUS
10
93.0454
20
-141.109
11
93.3311
21
-141.204
0
LINE
8
BLACK
6
CONTINUOUS
10
93.3311
20
-141.204
11
93.5216
21
-141.394
0
LINE
8
BLACK
6
CONTINUOUS
10
93.5216
20
-141.394
11
93.6168
21
-141.585
0
LINE
8
BLACK
6
CONTINUOUS
10
93.6168
20
-141.585
11
93.712
21
-141.966
0
LINE
8
BLACK
6
CONTINUOUS
10
93.712
20
-141.966
11
93.712
21
-142.252
0
LINE
8
BLACK
6
CONTINUOUS
10
93.712
20
-142.252
11
93.6168
21
-142.633
0
LINE
8
BLACK
6
CONTINUOUS
10
93.6168
20
-142.633
11
93.5216
21
-142.823
0
LINE
8
BLACK
6
CONTINUOUS
10
93.5216
20
-142.823
11
93.3311
21
-143.014
0
LINE
8
BLACK
6
CONTINUOUS
10
93.3311
20
-143.014
11
93.0454
21
-143.109
0
LINE
8
BLACK
6
CONTINUOUS
10
93.0454
20
-143.109
11
92.5692
21
-143.109
0
LINE
8
BLACK
6
CONTINUOUS
10
94.5692
20
-143.109
11
94.5692
21
-141.775
0
LINE
8
BLACK
6
CONTINUOUS
10
94.5692
20
-142.156
11
94.6644
21
-141.966
0
LINE
8
BLACK
6
CONTINUOUS
10
94.6644
20
-141.966
11
94.7597
21
-141.871
0
LINE
8
BLACK
6
CONTINUOUS
10
94.7597
20
-141.871
11
94.9501
21
-141.775
0
LINE
8
BLACK
6
CONTINUOUS
10
94.9501
20
-141.775
11
95.1406
21
-141.775
0
LINE
8
BLACK
6
CONTINUOUS
10
95.8073
20
-143.109
11
95.8073
21
-141.775
0
LINE
8
BLACK
6
CONTINUOUS
10
95.8073
20
-141.109
11
95.712
21
-141.204
0
LINE
8
BLACK
6
CONTINUOUS
10
95.712
20
-141.204
11
95.8073
21
-141.299
0
LINE
8
BLACK
6
CONTINUOUS
10
95.8073
20
-141.299
11
95.9025
21
-141.204
0
LINE
8
BLACK
6
CONTINUOUS
10
95.9025
20
-141.204
11
95.8073
21
-141.109
0
LINE
8
BLACK
6
CONTINUOUS
10
95.8073
20
-141.109
11
95.8073
21
-141.299
0
LINE
8
BLACK
6
CONTINUOUS
10
97.0454
20
-143.109
11
96.8549
21
-143.014
0
LINE
8
BLACK
6
CONTINUOUS
10
96.8549
20
-143.014
11
96.7597
21
-142.823
0
LINE
8
BLACK
6
CONTINUOUS
10
96.7597
20
-142.823
11
96.7597
21
-141.109
0
LINE
8
BLACK
6
CONTINUOUS
10
98.093
20
-143.109
11
97.9025
21
-143.014
0
LINE
8
BLACK
6
CONTINUOUS
10
97.9025
20
-143.014
11
97.8073
21
-142.823
0
LINE
8
BLACK
6
CONTINUOUS
10
97.8073
20
-142.823
11
97.8073
21
-141.109
0
LINE
8
BLACK
6
CONTINUOUS
10
100.379
20
-143.109
11
100.379
21
-141.109
0
LINE
8
BLACK
6
CONTINUOUS
10
100.379
20
-141.109
11
101.045
21
-142.537
0
LINE
8
BLACK
6
CONTINUOUS
10
101.045
20
-142.537
11
101.712
21
-141.109
0
LINE
8
BLACK
6
CONTINUOUS
10
101.712
20
-141.109
11
101.712
21
-143.109
0
LINE
8
BLACK
6
CONTINUOUS
10
103.522
20
-143.109
11
103.522
21
-142.061
0
LINE
8
BLACK
6
CONTINUOUS
10
103.522
20
-142.061
11
103.426
21
-141.871
0
LINE
8
BLACK
6
CONTINUOUS
10
103.426
20
-141.871
11
103.236
21
-141.775
0
LINE
8
BLACK
6
CONTINUOUS
10
103.236
20
-141.775
11
102.855
21
-141.775
0
LINE
8
BLACK
6
CONTINUOUS
10
102.855
20
-141.775
11
102.664
21
-141.871
0
LINE
8
BLACK
6
CONTINUOUS
10
103.522
20
-143.014
11
103.331
21
-143.109
0
LINE
8
BLACK
6
CONTINUOUS
10
103.331
20
-143.109
11
102.855
21
-143.109
0
LINE
8
BLACK
6
CONTINUOUS
10
102.855
20
-143.109
11
102.664
21
-143.014
0
LINE
8
BLACK
6
CONTINUOUS
10
102.664
20
-143.014
11
102.569
21
-142.823
0
LINE
8
BLACK
6
CONTINUOUS
10
102.569
20
-142.823
11
102.569
21
-142.633
0
LINE
8
BLACK
6
CONTINUOUS
10
102.569
20
-142.633
11
102.664
21
-142.442
0
LINE
8
BLACK
6
CONTINUOUS
10
102.664
20
-142.442
11
102.855
21
-142.347
0
LINE
8
BLACK
6
CONTINUOUS
10
102.855
20
-142.347
11
103.331
21
-142.347
0
LINE
8
BLACK
6
CONTINUOUS
10
103.331
20
-142.347
11
103.522
21
-142.252
0
LINE
8
BLACK
6
CONTINUOUS
10
104.474
20
-141.775
11
104.474
21
-143.775
0
LINE
8
BLACK
6
CONTINUOUS
10
104.474
20
-141.871
11
104.664
21
-141.775
0
LINE
8
BLACK
6
CONTINUOUS
10
104.664
20
-141.775
11
105.045
21
-141.775
0
LINE
8
BLACK
6
CONTINUOUS
10
105.045
20
-141.775
11
105.236
21
-141.871
0
LINE
8
BLACK
6
CONTINUOUS
10
105.236
20
-141.871
11
105.331
21
-141.966
0
LINE
8
BLACK
6
CONTINUOUS
10
105.331
20
-141.966
11
105.426
21
-142.156
0
LINE
8
BLACK
6
CONTINUOUS
10
105.426
20
-142.156
11
105.426
21
-142.728
0
LINE
8
BLACK
6
CONTINUOUS
10
105.426
20
-142.728
11
105.331
21
-142.918
0
LINE
8
BLACK
6
CONTINUOUS
10
105.331
20
-142.918
11
105.236
21
-143.014
0
LINE
8
BLACK
6
CONTINUOUS
10
105.236
20
-143.014
11
105.045
21
-143.109
0
LINE
8
BLACK
6
CONTINUOUS
10
105.045
20
-143.109
11
104.664
21
-143.109
0
LINE
8
BLACK
6
CONTINUOUS
10
104.664
20
-143.109
11
104.474
21
-143.014
0
LINE
8
BLACK
6
CONTINUOUS
10
106.283
20
-142.918
11
106.379
21
-143.014
0
LINE
8
BLACK
6
CONTINUOUS
10
106.379
20
-143.014
11
106.283
21
-143.109
0
LINE
8
BLACK
6
CONTINUOUS
10
106.283
20
-143.109
11
106.188
21
-143.014
0
LINE
8
BLACK
6
CONTINUOUS
10
106.188
20
-143.014
11
106.283
21
-142.918
0
LINE
8
BLACK
6
CONTINUOUS
10
106.283
20
-142.918
11
106.283
21
-143.109
0
LINE
8
BLACK
6
CONTINUOUS
10
106.283
20
-141.871
11
106.379
21
-141.966
0
LINE
8
BLACK
6
CONTINUOUS
10
106.379
20
-141.966
11
106.283
21
-142.061
0
LINE
8
BLACK
6
CONTINUOUS
10
106.283
20
-142.061
11
106.188
21
-141.966
0
LINE
8
BLACK
6
CONTINUOUS
10
106.188
20
-141.966
11
106.283
21
-141.871
0
LINE
8
BLACK
6
CONTINUOUS
10
106.283
20
-141.871
11
106.283
21
-142.061
0
LINE
8
BLACK
6
CONTINUOUS
10
89.193
20
-146.004
11
89.993
21
-146.804
0
LINE
8
BLACK
6
CONTINUOUS
10
89.993
20
-146.004
11
89.193
21
-146.804
0
LINE
8
BLACK
6
CONTINUOUS
10
92.9501
20
-145.309
11
93.1406
21
-145.309
0
LINE
8
BLACK
6
CONTINUOUS
10
93.1406
20
-145.309
11
93.3311
21
-145.404
0
LINE
8
BLACK
6
CONTINUOUS
10
93.3311
20
-145.404
11
93.4263
21
-145.499
0
LINE
8
BLACK
6
CONTINUOUS
10
93.4263
20
-145.499
11
93.5216
21
-145.69
0
LINE
8
BLACK
6
CONTINUOUS
10
93.5216
20
-145.69
11
93.6168
21
-146.071
0
LINE
8
BLACK
6
CONTINUOUS
10
93.6168
20
-146.071
11
93.6168
21
-146.547
0
LINE
8
BLACK
6
CONTINUOUS
10
93.6168
20
-146.547
11
93.5216
21
-146.928
0
LINE
8
BLACK
6
CONTINUOUS
10
93.5216
20
-146.928
11
93.4263
21
-147.118
0
LINE
8
BLACK
6
CONTINUOUS
10
93.4263
20
-147.118
11
93.3311
21
-147.214
0
LINE
8
BLACK
6
CONTINUOUS
10
93.3311
20
-147.214
11
93.1406
21
-147.309
0
LINE
8
BLACK
6
CONTINUOUS
10
93.1406
20
-147.309
11
92.9501
21
-147.309
0
LINE
8
BLACK
6
CONTINUOUS
10
92.9501
20
-147.309
11
92.7597
21
-147.214
0
LINE
8
BLACK
6
CONTINUOUS
10
92.7597
20
-147.214
11
92.6644
21
-147.118
0
LINE
8
BLACK
6
CONTINUOUS
10
92.6644
20
-147.118
11
92.5692
21
-146.928
0
LINE
8
BLACK
6
CONTINUOUS
10
92.5692
20
-146.928
11
92.474
21
-146.547
0
LINE
8
BLACK
6
CONTINUOUS
10
92.474
20
-146.547
11
92.474
21
-146.071
0
LINE
8
BLACK
6
CONTINUOUS
10
92.474
20
-146.071
11
92.5692
21
-145.69
0
LINE
8
BLACK
6
CONTINUOUS
10
92.5692
20
-145.69
11
92.6644
21
-145.499
0
LINE
8
BLACK
6
CONTINUOUS
10
92.6644
20
-145.499
11
92.7597
21
-145.404
0
LINE
8
BLACK
6
CONTINUOUS
10
92.7597
20
-145.404
11
92.9501
21
-145.309
0
LINE
8
BLACK
6
CONTINUOUS
10
94.474
20
-147.118
11
94.5692
21
-147.214
0
LINE
8
BLACK
6
CONTINUOUS
10
94.5692
20
-147.214
11
94.474
21
-147.309
0
LINE
8
BLACK
6
CONTINUOUS
10
94.474
20
-147.309
11
94.3787
21
-147.214
0
LINE
8
BLACK
6
CONTINUOUS
10
94.3787
20
-147.214
11
94.474
21
-147.118
0
LINE
8
BLACK
6
CONTINUOUS
10
94.474
20
-147.118
11
94.474
21
-147.309
0
LINE
8
BLACK
6
CONTINUOUS
10
95.712
20
-146.166
11
95.5216
21
-146.071
0
LINE
8
BLACK
6
CONTINUOUS
10
95.5216
20
-146.071
11
95.4263
21
-145.975
0
LINE
8
BLACK
6
CONTINUOUS
10
95.4263
20
-145.975
11
95.3311
21
-145.785
0
LINE
8
BLACK
6
CONTINUOUS
10
95.3311
20
-145.785
11
95.3311
21
-145.69
0
LINE
8
BLACK
6
CONTINUOUS
10
95.3311
20
-145.69
11
95.4263
21
-145.499
0
LINE
8
BLACK
6
CONTINUOUS
10
95.4263
20
-145.499
11
95.5216
21
-145.404
0
LINE
8
BLACK
6
CONTINUOUS
10
95.5216
20
-145.404
11
95.712
21
-145.309
0
LINE
8
BLACK
6
CONTINUOUS
10
95.712
20
-145.309
11
96.093
21
-145.309
0
LINE
8
BLACK
6
CONTINUOUS
10
96.093
20
-145.309
11
96.2835
21
-145.404
0
LINE
8
BLACK
6
CONTINUOUS
10
96.2835
20
-145.404
11
96.3787
21
-145.499
0
LINE
8
BLACK
6
CONTINUOUS
10
96.3787
20
-145.499
11
96.474
21
-145.69
0
LINE
8
BLACK
6
CONTINUOUS
10
96.474
20
-145.69
11
96.474
21
-145.785
0
LINE
8
BLACK
6
CONTINUOUS
10
96.474
20
-145.785
11
96.3787
21
-145.975
0
LINE
8
BLACK
6
CONTINUOUS
10
96.3787
20
-145.975
11
96.2835
21
-146.071
0
LINE
8
BLACK
6
CONTINUOUS
10
96.2835
20
-146.071
11
96.093
21
-146.166
0
LINE
8
BLACK
6
CONTINUOUS
10
96.093
20
-146.166
11
95.712
21
-146.166
0
LINE
8
BLACK
6
CONTINUOUS
10
95.712
20
-146.166
11
95.5216
21
-146.261
0
LINE
8
BLACK
6
CONTINUOUS
10
95.5216
20
-146.261
11
95.4263
21
-146.356
0
LINE
8
BLACK
6
CONTINUOUS
10
95.4263
20
-146.356
11
95.3311
21
-146.547
0
LINE
8
BLACK
6
CONTINUOUS
10
95.3311
20
-146.547
11
95.3311
21
-146.928
0
LINE
8
BLACK
6
CONTINUOUS
10
95.3311
20
-146.928
11
95.4263
21
-147.118
0
LINE
8
BLACK
6
CONTINUOUS
10
95.4263
20
-147.118
11
95.5216
21
-147.214
0
LINE
8
BLACK
6
CONTINUOUS
10
95.5216
20
-147.214
11
95.712
21
-147.309
0
LINE
8
BLACK
6
CONTINUOUS
10
95.712
20
-147.309
11
96.093
21
-147.309
0
LINE
8
BLACK
6
CONTINUOUS
10
96.093
20
-147.309
11
96.2835
21
-147.214
0
LINE
8
BLACK
6
CONTINUOUS
10
96.2835
20
-147.214
11
96.3787
21
-147.118
0
LINE
8
BLACK
6
CONTINUOUS
10
96.3787
20
-147.118
11
96.474
21
-146.928
0
LINE
8
BLACK
6
CONTINUOUS
10
96.474
20
-146.928
11
96.474
21
-146.547
0
LINE
8
BLACK
6
CONTINUOUS
10
96.474
20
-146.547
11
96.3787
21
-146.356
0
LINE
8
BLACK
6
CONTINUOUS
10
96.3787
20
-146.356
11
96.2835
21
-146.261
0
LINE
8
BLACK
6
CONTINUOUS
10
96.2835
20
-146.261
11
96.093
21
-146.166
0
LINE
8
BLACK
6
CONTINUOUS
10
97.712
20
-145.309
11
97.9025
21
-145.309
0
LINE
8
BLACK
6
CONTINUOUS
10
97.9025
20
-145.309
11
98.093
21
-145.404
0
LINE
8
BLACK
6
CONTINUOUS
10
98.093
20
-145.404
11
98.1882
21
-145.499
0
LINE
8
BLACK
6
CONTINUOUS
10
98.1882
20
-145.499
11
98.2835
21
-145.69
0
LINE
8
BLACK
6
CONTINUOUS
10
98.2835
20
-145.69
11
98.3787
21
-146.071
0
LINE
8
BLACK
6
CONTINUOUS
10
98.3787
20
-146.071
11
98.3787
21
-146.547
0
LINE
8
BLACK
6
CONTINUOUS
10
98.3787
20
-146.547
11
98.2835
21
-146.928
0
LINE
8
BLACK
6
CONTINUOUS
10
98.2835
20
-146.928
11
98.1882
21
-147.118
0
LINE
8
BLACK
6
CONTINUOUS
10
98.1882
20
-147.118
11
98.093
21
-147.214
0
LINE
8
BLACK
6
CONTINUOUS
10
98.093
20
-147.214
11
97.9025
21
-147.309
0
LINE
8
BLACK
6
CONTINUOUS
10
97.9025
20
-147.309
11
97.712
21
-147.309
0
LINE
8
BLACK
6
CONTINUOUS
10
97.712
20
-147.309
11
97.5216
21
-147.214
0
LINE
8
BLACK
6
CONTINUOUS
10
97.5216
20
-147.214
11
97.4263
21
-147.118
0
LINE
8
BLACK
6
CONTINUOUS
10
97.4263
20
-147.118
11
97.3311
21
-146.928
0
LINE
8
BLACK
6
CONTINUOUS
10
97.3311
20
-146.928
11
97.2359
21
-146.547
0
LINE
8
BLACK
6
CONTINUOUS
10
97.2359
20
-146.547
11
97.2359
21
-146.071
0
LINE
8
BLACK
6
CONTINUOUS
10
97.2359
20
-146.071
11
97.3311
21
-145.69
0
LINE
8
BLACK
6
CONTINUOUS
10
97.3311
20
-145.69
11
97.4263
21
-145.499
0
LINE
8
BLACK
6
CONTINUOUS
10
97.4263
20
-145.499
11
97.5216
21
-145.404
0
LINE
8
BLACK
6
CONTINUOUS
10
97.5216
20
-145.404
11
97.712
21
-145.309
0
LINE
8
BLACK
6
CONTINUOUS
10
99.6168
20
-145.309
11
99.8073
21
-145.309
0
LINE
8
BLACK
6
CONTINUOUS
10
99.8073
20
-145.309
11
99.9978
21
-145.404
0
LINE
8
BLACK
6
CONTINUOUS
10
99.9978
20
-145.404
11
100.093
21
-145.499
0
LINE
8
BLACK
6
CONTINUOUS
10
100.093
20
-145.499
11
100.188
21
-145.69
0
LINE
8
BLACK
6
CONTINUOUS
10
100.188
20
-145.69
11
100.283
21
-146.071
0
LINE
8
BLACK
6
CONTINUOUS
10
100.283
20
-146.071
11
100.283
21
-146.547
0
LINE
8
BLACK
6
CONTINUOUS
10
100.283
20
-146.547
11
100.188
21
-146.928
0
LINE
8
BLACK
6
CONTINUOUS
10
100.188
20
-146.928
11
100.093
21
-147.118
0
LINE
8
BLACK
6
CONTINUOUS
10
100.093
20
-147.118
11
99.9978
21
-147.214
0
LINE
8
BLACK
6
CONTINUOUS
10
99.9978
20
-147.214
11
99.8073
21
-147.309
0
LINE
8
BLACK
6
CONTINUOUS
10
99.8073
20
-147.309
11
99.6168
21
-147.309
0
LINE
8
BLACK
6
CONTINUOUS
10
99.6168
20
-147.309
11
99.4263
21
-147.214
0
LINE
8
BLACK
6
CONTINUOUS
10
99.4263
20
-147.214
11
99.3311
21
-147.118
0
LINE
8
BLACK
6
CONTINUOUS
10
99.3311
20
-147.118
11
99.2359
21
-146.928
0
LINE
8
BLACK
6
CONTINUOUS
10
99.2359
20
-146.928
11
99.1406
21
-146.547
0
LINE
8
BLACK
6
CONTINUOUS
10
99.1406
20
-146.547
11
99.1406
21
-146.071
0
LINE
8
BLACK
6
CONTINUOUS
10
99.1406
20
-146.071
11
99.2359
21
-145.69
0
LINE
8
BLACK
6
CONTINUOUS
10
99.2359
20
-145.69
11
99.3311
21
-145.499
0
LINE
8
BLACK
6
CONTINUOUS
10
99.3311
20
-145.499
11
99.4263
21
-145.404
0
LINE
8
BLACK
6
CONTINUOUS
10
99.4263
20
-145.404
11
99.6168
21
-145.309
0
LINE
8
BLACK
6
CONTINUOUS
10
101.141
20
-147.309
11
101.141
21
-145.975
0
LINE
8
BLACK
6
CONTINUOUS
10
101.141
20
-146.166
11
101.236
21
-146.071
0
LINE
8
BLACK
6
CONTINUOUS
10
101.236
20
-146.071
11
101.426
21
-145.975
0
LINE
8
BLACK
6
CONTINUOUS
10
101.426
20
-145.975
11
101.712
21
-145.975
0
LINE
8
BLACK
6
CONTINUOUS
10
101.712
20
-145.975
11
101.903
21
-146.071
0
LINE
8
BLACK
6
CONTINUOUS
10
101.903
20
-146.071
11
101.998
21
-146.261
0
LINE
8
BLACK
6
CONTINUOUS
10
101.998
20
-146.261
11
101.998
21
-147.309
0
LINE
8
BLACK
6
CONTINUOUS
10
101.998
20
-146.261
11
102.093
21
-146.071
0
LINE
8
BLACK
6
CONTINUOUS
10
102.093
20
-146.071
11
102.283
21
-145.975
0
LINE
8
BLACK
6
CONTINUOUS
10
102.283
20
-145.975
11
102.569
21
-145.975
0
LINE
8
BLACK
6
CONTINUOUS
10
102.569
20
-145.975
11
102.76
21
-146.071
0
LINE
8
BLACK
6
CONTINUOUS
10
102.76
20
-146.071
11
102.855
21
-146.261
0
LINE
8
BLACK
6
CONTINUOUS
10
102.855
20
-146.261
11
102.855
21
-147.309
0
LINE
8
BLACK
6
CONTINUOUS
10
103.807
20
-147.309
11
103.807
21
-145.975
0
LINE
8
BLACK
6
CONTINUOUS
10
103.807
20
-146.166
11
103.903
21
-146.071
0
LINE
8
BLACK
6
CONTINUOUS
10
103.903
20
-146.071
11
104.093
21
-145.975
0
LINE
8
BLACK
6
CONTINUOUS
10
104.093
20
-145.975
11
104.379
21
-145.975
0
LINE
8
BLACK
6
CONTINUOUS
10
104.379
20
-145.975
11
104.569
21
-146.071
0
LINE
8
BLACK
6
CONTINUOUS
10
104.569
20
-146.071
11
104.664
21
-146.261
0
LINE
8
BLACK
6
CONTINUOUS
10
104.664
20
-146.261
11
104.664
21
-147.309
0
LINE
8
BLACK
6
CONTINUOUS
10
104.664
20
-146.261
11
104.76
21
-146.071
0
LINE
8
BLACK
6
CONTINUOUS
10
104.76
20
-146.071
11
104.95
21
-145.975
0
LINE
8
BLACK
6
CONTINUOUS
10
104.95
20
-145.975
11
105.236
21
-145.975
0
LINE
8
BLACK
6
CONTINUOUS
10
105.236
20
-145.975
11
105.426
21
-146.071
0
LINE
8
BLACK
6
CONTINUOUS
10
105.426
20
-146.071
11
105.522
21
-146.261
0
LINE
8
BLACK
6
CONTINUOUS
10
105.522
20
-146.261
11
105.522
21
-147.309
0
LINE
8
BLACK
6
CONTINUOUS
10
109.426
20
-145.214
11
107.712
21
-147.785
0
LINE
8
BLACK
6
CONTINUOUS
10
111.998
20
-145.309
11
112.188
21
-145.309
0
LINE
8
BLACK
6
CONTINUOUS
10
112.188
20
-145.309
11
112.379
21
-145.404
0
LINE
8
BLACK
6
CONTINUOUS
10
112.379
20
-145.404
11
112.474
21
-145.499
0
LINE
8
BLACK
6
CONTINUOUS
10
112.474
20
-145.499
11
112.569
21
-145.69
0
LINE
8
BLACK
6
CONTINUOUS
10
112.569
20
-145.69
11
112.664
21
-146.071
0
LINE
8
BLACK
6
CONTINUOUS
10
112.664
20
-146.071
11
112.664
21
-146.547
0
LINE
8
BLACK
6
CONTINUOUS
10
112.664
20
-146.547
11
112.569
21
-146.928
0
LINE
8
BLACK
6
CONTINUOUS
10
112.569
20
-146.928
11
112.474
21
-147.118
0
LINE
8
BLACK
6
CONTINUOUS
10
112.474
20
-147.118
11
112.379
21
-147.214
0
LINE
8
BLACK
6
CONTINUOUS
10
112.379
20
-147.214
11
112.188
21
-147.309
0
LINE
8
BLACK
6
CONTINUOUS
10
112.188
20
-147.309
11
111.998
21
-147.309
0
LINE
8
BLACK
6
CONTINUOUS
10
111.998
20
-147.309
11
111.807
21
-147.214
0
LINE
8
BLACK
6
CONTINUOUS
10
111.807
20
-147.214
11
111.712
21
-147.118
0
LINE
8
BLACK
6
CONTINUOUS
10
111.712
20
-147.118
11
111.617
21
-146.928
0
LINE
8
BLACK
6
CONTINUOUS
10
111.617
20
-146.928
11
111.522
21
-146.547
0
LINE
8
BLACK
6
CONTINUOUS
10
111.522
20
-146.547
11
111.522
21
-146.071
0
LINE
8
BLACK
6
CONTINUOUS
10
111.522
20
-146.071
11
111.617
21
-145.69
0
LINE
8
BLACK
6
CONTINUOUS
10
111.617
20
-145.69
11
111.712
21
-145.499
0
LINE
8
BLACK
6
CONTINUOUS
10
111.712
20
-145.499
11
111.807
21
-145.404
0
LINE
8
BLACK
6
CONTINUOUS
10
111.807
20
-145.404
11
111.998
21
-145.309
0
LINE
8
BLACK
6
CONTINUOUS
10
113.522
20
-147.118
11
113.617
21
-147.214
0
LINE
8
BLACK
6
CONTINUOUS
10
113.617
20
-147.214
11
113.522
21
-147.309
0
LINE
8
BLACK
6
CONTINUOUS
10
113.522
20
-147.309
11
113.426
21
-147.214
0
LINE
8
BLACK
6
CONTINUOUS
10
113.426
20
-147.214
11
113.522
21
-147.118
0
LINE
8
BLACK
6
CONTINUOUS
10
113.522
20
-147.118
11
113.522
21
-147.309
0
LINE
8
BLACK
6
CONTINUOUS
10
114.855
20
-145.309
11
115.045
21
-145.309
0
LINE
8
BLACK
6
CONTINUOUS
10
115.045
20
-145.309
11
115.236
21
-145.404
0
LINE
8
BLACK
6
CONTINUOUS
10
115.236
20
-145.404
11
115.331
21
-145.499
0
LINE
8
BLACK
6
CONTINUOUS
10
115.331
20
-145.499
11
115.426
21
-145.69
0
LINE
8
BLACK
6
CONTINUOUS
10
115.426
20
-145.69
11
115.522
21
-146.071
0
LINE
8
BLACK
6
CONTINUOUS
10
115.522
20
-146.071
11
115.522
21
-146.547
0
LINE
8
BLACK
6
CONTINUOUS
10
115.522
20
-146.547
11
115.426
21
-146.928
0
LINE
8
BLACK
6
CONTINUOUS
10
115.426
20
-146.928
11
115.331
21
-147.118
0
LINE
8
BLACK
6
CONTINUOUS
10
115.331
20
-147.118
11
115.236
21
-147.214
0
LINE
8
BLACK
6
CONTINUOUS
10
115.236
20
-147.214
11
115.045
21
-147.309
0
LINE
8
BLACK
6
CONTINUOUS
10
115.045
20
-147.309
11
114.855
21
-147.309
0
LINE
8
BLACK
6
CONTINUOUS
10
114.855
20
-147.309
11
114.664
21
-147.214
0
LINE
8
BLACK
6
CONTINUOUS
10
114.664
20
-147.214
11
114.569
21
-147.118
0
LINE
8
BLACK
6
CONTINUOUS
10
114.569
20
-147.118
11
114.474
21
-146.928
0
LINE
8
BLACK
6
CONTINUOUS
10
114.474
20
-146.928
11
114.379
21
-146.547
0
LINE
8
BLACK
6
CONTINUOUS
10
114.379
20
-146.547
11
114.379
21
-146.071
0
LINE
8
BLACK
6
CONTINUOUS
10
114.379
20
-146.071
11
114.474
21
-145.69
0
LINE
8
BLACK
6
CONTINUOUS
10
114.474
20
-145.69
11
114.569
21
-145.499
0
LINE
8
BLACK
6
CONTINUOUS
10
114.569
20
-145.499
11
114.664
21
-145.404
0
LINE
8
BLACK
6
CONTINUOUS
10
114.664
20
-145.404
11
114.855
21
-145.309
0
LINE
8
BLACK
6
CONTINUOUS
10
116.188
20
-145.309
11
117.426
21
-145.309
0
LINE
8
BLACK
6
CONTINUOUS
10
117.426
20
-145.309
11
116.76
21
-146.071
0
LINE
8
BLACK
6
CONTINUOUS
10
116.76
20
-146.071
11
117.045
21
-146.071
0
LINE
8
BLACK
6
CONTINUOUS
10
117.045
20
-146.071
11
117.236
21
-146.166
0
LINE
8
BLACK
6
CONTINUOUS
10
117.236
20
-146.166
11
117.331
21
-146.261
0
LINE
8
BLACK
6
CONTINUOUS
10
117.331
20
-146.261
11
117.426
21
-146.452
0
LINE
8
BLACK
6
CONTINUOUS
10
117.426
20
-146.452
11
117.426
21
-146.928
0
LINE
8
BLACK
6
CONTINUOUS
10
117.426
20
-146.928
11
117.331
21
-147.118
0
LINE
8
BLACK
6
CONTINUOUS
10
117.331
20
-147.118
11
117.236
21
-147.214
0
LINE
8
BLACK
6
CONTINUOUS
10
117.236
20
-147.214
11
117.045
21
-147.309
0
LINE
8
BLACK
6
CONTINUOUS
10
117.045
20
-147.309
11
116.474
21
-147.309
0
LINE
8
BLACK
6
CONTINUOUS
10
116.474
20
-147.309
11
116.283
21
-147.214
0
LINE
8
BLACK
6
CONTINUOUS
10
116.283
20
-147.214
11
116.188
21
-147.118
0
LINE
8
BLACK
6
CONTINUOUS
10
119.331
20
-147.309
11
118.188
21
-147.309
0
LINE
8
BLACK
6
CONTINUOUS
10
118.76
20
-147.309
11
118.76
21
-145.309
0
LINE
8
BLACK
6
CONTINUOUS
10
118.76
20
-145.309
11
118.569
21
-145.594
0
LINE
8
BLACK
6
CONTINUOUS
10
118.569
20
-145.594
11
118.379
21
-145.785
0
LINE
8
BLACK
6
CONTINUOUS
10
118.379
20
-145.785
11
118.188
21
-145.88
0
LINE
8
BLACK
6
CONTINUOUS
10
121.141
20
-145.309
11
120.188
21
-145.309
0
LINE
8
BLACK
6
CONTINUOUS
10
120.188
20
-145.309
11
120.093
21
-146.261
0
LINE
8
BLACK
6
CONTINUOUS
10
120.093
20
-146.261
11
120.188
21
-146.166
0
LINE
8
BLACK
6
CONTINUOUS
10
120.188
20
-146.166
11
120.379
21
-146.071
0
LINE
8
BLACK
6
CONTINUOUS
10
120.379
20
-146.071
11
120.855
21
-146.071
0
LINE
8
BLACK
6
CONTINUOUS
10
120.855
20
-146.071
11
121.045
21
-146.166
0
LINE
8
BLACK
6
CONTINUOUS
10
121.045
20
-146.166
11
121.141
21
-146.261
0
LINE
8
BLACK
6
CONTINUOUS
10
121.141
20
-146.261
11
121.236
21
-146.452
0
LINE
8
BLACK
6
CONTINUOUS
10
121.236
20
-146.452
11
121.236
21
-146.928
0
LINE
8
BLACK
6
CONTINUOUS
10
121.236
20
-146.928
11
121.141
21
-147.118
0
LINE
8
BLACK
6
CONTINUOUS
10
121.141
20
-147.118
11
121.045
21
-147.214
0
LINE
8
BLACK
6
CONTINUOUS
10
121.045
20
-147.214
11
120.855
21
-147.309
0
LINE
8
BLACK
6
CONTINUOUS
10
120.855
20
-147.309
11
120.379
21
-147.309
0
LINE
8
BLACK
6
CONTINUOUS
10
120.379
20
-147.309
11
120.188
21
-147.214
0
LINE
8
BLACK
6
CONTINUOUS
10
120.188
20
-147.214
11
120.093
21
-147.118
0
LINE
8
BLACK
6
CONTINUOUS
10
121.998
20
-145.309
11
121.998
21
-145.69
0
LINE
8
BLACK
6
CONTINUOUS
10
122.76
20
-145.309
11
122.76
21
-145.69
0
LINE
8
BLACK
6
CONTINUOUS
10
125.712
20
-148.071
11
125.617
21
-147.975
0
LINE
8
BLACK
6
CONTINUOUS
10
125.617
20
-147.975
11
125.426
21
-147.69
0
LINE
8
BLACK
6
CONTINUOUS
10
125.426
20
-147.69
11
125.331
21
-147.499
0
LINE
8
BLACK
6
CONTINUOUS
10
125.331
20
-147.499
11
125.236
21
-147.214
0
LINE
8
BLACK
6
CONTINUOUS
10
125.236
20
-147.214
11
125.141
21
-146.737
0
LINE
8
BLACK
6
CONTINUOUS
10
125.141
20
-146.737
11
125.141
21
-146.356
0
LINE
8
BLACK
6
CONTINUOUS
10
125.141
20
-146.356
11
125.236
21
-145.88
0
LINE
8
BLACK
6
CONTINUOUS
10
125.236
20
-145.88
11
125.331
21
-145.594
0
LINE
8
BLACK
6
CONTINUOUS
10
125.331
20
-145.594
11
125.426
21
-145.404
0
LINE
8
BLACK
6
CONTINUOUS
10
125.426
20
-145.404
11
125.617
21
-145.118
0
LINE
8
BLACK
6
CONTINUOUS
10
125.617
20
-145.118
11
125.712
21
-145.023
0
LINE
8
BLACK
6
CONTINUOUS
10
127.522
20
-147.309
11
126.379
21
-147.309
0
LINE
8
BLACK
6
CONTINUOUS
10
126.95
20
-147.309
11
126.95
21
-145.309
0
LINE
8
BLACK
6
CONTINUOUS
10
126.95
20
-145.309
11
126.76
21
-145.594
0
LINE
8
BLACK
6
CONTINUOUS
10
126.76
20
-145.594
11
126.569
21
-145.785
0
LINE
8
BLACK
6
CONTINUOUS
10
126.569
20
-145.785
11
126.379
21
-145.88
0
LINE
8
BLACK
6
CONTINUOUS
10
128.188
20
-145.309
11
129.522
21
-145.309
0
LINE
8
BLACK
6
CONTINUOUS
10
129.522
20
-145.309
11
128.664
21
-147.309
0
LINE
8
BLACK
6
CONTINUOUS
10
131.807
20
-147.309
11
131.807
21
-145.309
0
LINE
8
BLACK
6
CONTINUOUS
10
132.664
20
-147.309
11
132.664
21
-146.261
0
LINE
8
BLACK
6
CONTINUOUS
10
132.664
20
-146.261
11
132.569
21
-146.071
0
LINE
8
BLACK
6
CONTINUOUS
10
132.569
20
-146.071
11
132.379
21
-145.975
0
LINE
8
BLACK
6
CONTINUOUS
10
132.379
20
-145.975
11
132.093
21
-145.975
0
LINE
8
BLACK
6
CONTINUOUS
10
132.093
20
-145.975
11
131.903
21
-146.071
0
LINE
8
BLACK
6
CONTINUOUS
10
131.903
20
-146.071
11
131.807
21
-146.166
0
LINE
8
BLACK
6
CONTINUOUS
10
133.903
20
-147.309
11
133.712
21
-147.214
0
LINE
8
BLACK
6
CONTINUOUS
10
133.712
20
-147.214
11
133.617
21
-147.118
0
LINE
8
BLACK
6
CONTINUOUS
10
133.617
20
-147.118
11
133.522
21
-146.928
0
LINE
8
BLACK
6
CONTINUOUS
10
133.522
20
-146.928
11
133.522
21
-146.356
0
LINE
8
BLACK
6
CONTINUOUS
10
133.522
20
-146.356
11
133.617
21
-146.166
0
LINE
8
BLACK
6
CONTINUOUS
10
133.617
20
-146.166
11
133.712
21
-146.071
0
LINE
8
BLACK
6
CONTINUOUS
10
133.712
20
-146.071
11
133.903
21
-145.975
0
LINE
8
BLACK
6
CONTINUOUS
10
133.903
20
-145.975
11
134.188
21
-145.975
0
LINE
8
BLACK
6
CONTINUOUS
10
134.188
20
-145.975
11
134.379
21
-146.071
0
LINE
8
BLACK
6
CONTINUOUS
10
134.379
20
-146.071
11
134.474
21
-146.166
0
LINE
8
BLACK
6
CONTINUOUS
10
134.474
20
-146.166
11
134.569
21
-146.356
0
LINE
8
BLACK
6
CONTINUOUS
10
134.569
20
-146.356
11
134.569
21
-146.928
0
LINE
8
BLACK
6
CONTINUOUS
10
134.569
20
-146.928
11
134.474
21
-147.118
0
LINE
8
BLACK
6
CONTINUOUS
10
134.474
20
-147.118
11
134.379
21
-147.214
0
LINE
8
BLACK
6
CONTINUOUS
10
134.379
20
-147.214
11
134.188
21
-147.309
0
LINE
8
BLACK
6
CONTINUOUS
10
134.188
20
-147.309
11
133.903
21
-147.309
0
LINE
8
BLACK
6
CONTINUOUS
10
135.712
20
-147.309
11
135.522
21
-147.214
0
LINE
8
BLACK
6
CONTINUOUS
10
135.522
20
-147.214
11
135.426
21
-147.023
0
LINE
8
BLACK
6
CONTINUOUS
10
135.426
20
-147.023
11
135.426
21
-145.309
0
LINE
8
BLACK
6
CONTINUOUS
10
137.236
20
-147.214
11
137.045
21
-147.309
0
LINE
8
BLACK
6
CONTINUOUS
10
137.045
20
-147.309
11
136.664
21
-147.309
0
LINE
8
BLACK
6
CONTINUOUS
10
136.664
20
-147.309
11
136.474
21
-147.214
0
LINE
8
BLACK
6
CONTINUOUS
10
136.474
20
-147.214
11
136.379
21
-147.023
0
LINE
8
BLACK
6
CONTINUOUS
10
136.379
20
-147.023
11
136.379
21
-146.261
0
LINE
8
BLACK
6
CONTINUOUS
10
136.379
20
-146.261
11
136.474
21
-146.071
0
LINE
8
BLACK
6
CONTINUOUS
10
136.474
20
-146.071
11
136.664
21
-145.975
0
LINE
8
BLACK
6
CONTINUOUS
10
136.664
20
-145.975
11
137.045
21
-145.975
0
LINE
8
BLACK
6
CONTINUOUS
10
137.045
20
-145.975
11
137.236
21
-146.071
0
LINE
8
BLACK
6
CONTINUOUS
10
137.236
20
-146.071
11
137.331
21
-146.261
0
LINE
8
BLACK
6
CONTINUOUS
10
137.331
20
-146.261
11
137.331
21
-146.452
0
LINE
8
BLACK
6
CONTINUOUS
10
137.331
20
-146.452
11
136.379
21
-146.642
0
LINE
8
BLACK
6
CONTINUOUS
10
138.093
20
-147.214
11
138.283
21
-147.309
0
LINE
8
BLACK
6
CONTINUOUS
10
138.283
20
-147.309
11
138.664
21
-147.309
0
LINE
8
BLACK
6
CONTINUOUS
10
138.664
20
-147.309
11
138.855
21
-147.214
0
LINE
8
BLACK
6
CONTINUOUS
10
138.855
20
-147.214
11
138.95
21
-147.023
0
LINE
8
BLACK
6
CONTINUOUS
10
138.95
20
-147.023
11
138.95
21
-146.928
0
LINE
8
BLACK
6
CONTINUOUS
10
138.95
20
-146.928
11
138.855
21
-146.737
0
LINE
8
BLACK
6
CONTINUOUS
10
138.855
20
-146.737
11
138.664
21
-146.642
0
LINE
8
BLACK
6
CONTINUOUS
10
138.664
20
-146.642
11
138.379
21
-146.642
0
LINE
8
BLACK
6
CONTINUOUS
10
138.379
20
-146.642
11
138.188
21
-146.547
0
LINE
8
BLACK
6
CONTINUOUS
10
138.188
20
-146.547
11
138.093
21
-146.356
0
LINE
8
BLACK
6
CONTINUOUS
10
138.093
20
-146.356
11
138.093
21
-146.261
0
LINE
8
BLACK
6
CONTINUOUS
10
138.093
20
-146.261
11
138.188
21
-146.071
0
LINE
8
BLACK
6
CONTINUOUS
10
138.188
20
-146.071
11
138.379
21
-145.975
0
LINE
8
BLACK
6
CONTINUOUS
10
138.379
20
-145.975
11
138.664
21
-145.975
0
LINE
8
BLACK
6
CONTINUOUS
10
138.664
20
-145.975
11
138.855
21
-146.071
0
LINE
8
BLACK
6
CONTINUOUS
10
139.617
20
-148.071
11
139.712
21
-147.975
0
LINE
8
BLACK
6
CONTINUOUS
10
139.712
20
-147.975
11
139.903
21
-147.69
0
LINE
8
BLACK
6
CONTINUOUS
10
139.903
20
-147.69
11
139.998
21
-147.499
0
LINE
8
BLACK
6
CONTINUOUS
10
139.998
20
-147.499
11
140.093
21
-147.214
0
LINE
8
BLACK
6
CONTINUOUS
10
140.093
20
-147.214
11
140.188
21
-146.737
0
LINE
8
BLACK
6
CONTINUOUS
10
140.188
20
-146.737
11
140.188
21
-146.356
0
LINE
8
BLACK
6
CONTINUOUS
10
140.188
20
-146.356
11
140.093
21
-145.88
0
LINE
8
BLACK
6
CONTINUOUS
10
140.093
20
-145.88
11
139.998
21
-145.594
0
LINE
8
BLACK
6
CONTINUOUS
10
139.998
20
-145.594
11
139.903
21
-145.404
0
LINE
8
BLACK
6
CONTINUOUS
10
139.903
20
-145.404
11
139.712
21
-145.118
0
LINE
8
BLACK
6
CONTINUOUS
10
139.712
20
-145.118
11
139.617
21
-145.023
0
CIRCLE
8
BLACK
10
89.243
20
-149.044
40
0.75
0
LINE
8
BLACK
6
CONTINUOUS
10
93.6168
20
-149.949
11
92.474
21
-149.949
0
LINE
8
BLACK
6
CONTINUOUS
10
93.0454
20
-149.949
11
93.0454
21
-147.949
0
LINE
8
BLACK
6
CONTINUOUS
10
93.0454
20
-147.949
11
92.8549
21
-148.234
0
LINE
8
BLACK
6
CONTINUOUS
10
92.8549
20
-148.234
11
92.6644
21
-148.425
0
LINE
8
BLACK
6
CONTINUOUS
10
92.6644
20
-148.425
11
92.474
21
-148.52
0
LINE
8
BLACK
6
CONTINUOUS
10
94.474
20
-149.758
11
94.5692
21
-149.854
0
LINE
8
BLACK
6
CONTINUOUS
10
94.5692
20
-149.854
11
94.474
21
-149.949
0
LINE
8
BLACK
6
CONTINUOUS
10
94.474
20
-149.949
11
94.3787
21
-149.854
0
LINE
8
BLACK
6
CONTINUOUS
10
94.3787
20
-149.854
11
94.474
21
-149.758
0
LINE
8
BLACK
6
CONTINUOUS
10
94.474
20
-149.758
11
94.474
21
-149.949
0
LINE
8
BLACK
6
CONTINUOUS
10
96.3787
20
-147.949
11
95.4263
21
-147.949
0
LINE
8
BLACK
6
CONTINUOUS
10
95.4263
20
-147.949
11
95.3311
21
-148.901
0
LINE
8
BLACK
6
CONTINUOUS
10
95.3311
20
-148.901
11
95.4263
21
-148.806
0
LINE
8
BLACK
6
CONTINUOUS
10
95.4263
20
-148.806
11
95.6168
21
-148.711
0
LINE
8
BLACK
6
CONTINUOUS
10
95.6168
20
-148.711
11
96.093
21
-148.711
0
LINE
8
BLACK
6
CONTINUOUS
10
96.093
20
-148.711
11
96.2835
21
-148.806
0
LINE
8
BLACK
6
CONTINUOUS
10
96.2835
20
-148.806
11
96.3787
21
-148.901
0
LINE
8
BLACK
6
CONTINUOUS
10
96.3787
20
-148.901
11
96.474
21
-149.092
0
LINE
8
BLACK
6
CONTINUOUS
10
96.474
20
-149.092
11
96.474
21
-149.568
0
LINE
8
BLACK
6
CONTINUOUS
10
96.474
20
-149.568
11
96.3787
21
-149.758
0
LINE
8
BLACK
6
CONTINUOUS
10
96.3787
20
-149.758
11
96.2835
21
-149.854
0
LINE
8
BLACK
6
CONTINUOUS
10
96.2835
20
-149.854
11
96.093
21
-149.949
0
LINE
8
BLACK
6
CONTINUOUS
10
96.093
20
-149.949
11
95.6168
21
-149.949
0
LINE
8
BLACK
6
CONTINUOUS
10
95.6168
20
-149.949
11
95.4263
21
-149.854
0
LINE
8
BLACK
6
CONTINUOUS
10
95.4263
20
-149.854
11
95.3311
21
-149.758
0
LINE
8
BLACK
6
CONTINUOUS
10
97.712
20
-147.949
11
97.9025
21
-147.949
0
LINE
8
BLACK
6
CONTINUOUS
10
97.9025
20
-147.949
11
98.093
21
-148.044
0
LINE
8
BLACK
6
CONTINUOUS
10
98.093
20
-148.044
11
98.1882
21
-148.139
0
LINE
8
BLACK
6
CONTINUOUS
10
98.1882
20
-148.139
11
98.2835
21
-148.33
0
LINE
8
BLACK
6
CONTINUOUS
10
98.2835
20
-148.33
11
98.3787
21
-148.711
0
LINE
8
BLACK
6
CONTINUOUS
10
98.3787
20
-148.711
11
98.3787
21
-149.187
0
LINE
8
BLACK
6
CONTINUOUS
10
98.3787
20
-149.187
11
98.2835
21
-149.568
0
LINE
8
BLACK
6
CONTINUOUS
10
98.2835
20
-149.568
11
98.1882
21
-149.758
0
LINE
8
BLACK
6
CONTINUOUS
10
98.1882
20
-149.758
11
98.093
21
-149.854
0
LINE
8
BLACK
6
CONTINUOUS
10
98.093
20
-149.854
11
97.9025
21
-149.949
0
LINE
8
BLACK
6
CONTINUOUS
10
97.9025
20
-149.949
11
97.712
21
-149.949
0
LINE
8
BLACK
6
CONTINUOUS
10
97.712
20
-149.949
11
97.5216
21
-149.854
0
LINE
8
BLACK
6
CONTINUOUS
10
97.5216
20
-149.854
11
97.4263
21
-149.758
0
LINE
8
BLACK
6
CONTINUOUS
10
97.4263
20
-149.758
11
97.3311
21
-149.568
0
LINE
8
BLACK
6
CONTINUOUS
10
97.3311
20
-149.568
11
97.2359
21
-149.187
0
LINE
8
BLACK
6
CONTINUOUS
10
97.2359
20
-149.187
11
97.2359
21
-148.711
0
LINE
8
BLACK
6
CONTINUOUS
10
97.2359
20
-148.711
11
97.3311
21
-148.33
0
LINE
8
BLACK
6
CONTINUOUS
10
97.3311
20
-148.33
11
97.4263
21
-148.139
0
LINE
8
BLACK
6
CONTINUOUS
10
97.4263
20
-148.139
11
97.5216
21
-148.044
0
LINE
8
BLACK
6
CONTINUOUS
10
97.5216
20
-148.044
11
97.712
21
-147.949
0
LINE
8
BLACK
6
CONTINUOUS
10
99.6168
20
-147.949
11
99.8073
21
-147.949
0
LINE
8
BLACK
6
CONTINUOUS
10
99.8073
20
-147.949
11
99.9978
21
-148.044
0
LINE
8
BLACK
6
CONTINUOUS
10
99.9978
20
-148.044
11
100.093
21
-148.139
0
LINE
8
BLACK
6
CONTINUOUS
10
100.093
20
-148.139
11
100.188
21
-148.33
0
LINE
8
BLACK
6
CONTINUOUS
10
100.188
20
-148.33
11
100.283
21
-148.711
0
LINE
8
BLACK
6
CONTINUOUS
10
100.283
20
-148.711
11
100.283
21
-149.187
0
LINE
8
BLACK
6
CONTINUOUS
10
100.283
20
-149.187
11
100.188
21
-149.568
0
LINE
8
BLACK
6
CONTINUOUS
10
100.188
20
-149.568
11
100.093
21
-149.758
0
LINE
8
BLACK
6
CONTINUOUS
10
100.093
20
-149.758
11
99.9978
21
-149.854
0
LINE
8
BLACK
6
CONTINUOUS
10
99.9978
20
-149.854
11
99.8073
21
-149.949
0
LINE
8
BLACK
6
CONTINUOUS
10
99.8073
20
-149.949
11
99.6168
21
-149.949
0
LINE
8
BLACK
6
CONTINUOUS
10
99.6168
20
-149.949
11
99.4263
21
-149.854
0
LINE
8
BLACK
6
CONTINUOUS
10
99.4263
20
-149.854
11
99.3311
21
-149.758
0
LINE
8
BLACK
6
CONTINUOUS
10
99.3311
20
-149.758
11
99.2359
21
-149.568
0
LINE
8
BLACK
6
CONTINUOUS
10
99.2359
20
-149.568
11
99.1406
21
-149.187
0
LINE
8
BLACK
6
CONTINUOUS
10
99.1406
20
-149.187
11
99.1406
21
-148.711
0
LINE
8
BLACK
6
CONTINUOUS
10
99.1406
20
-148.711
11
99.2359
21
-148.33
0
LINE
8
BLACK
6
CONTINUOUS
10
99.2359
20
-148.33
11
99.3311
21
-148.139
0
LINE
8
BLACK
6
CONTINUOUS
10
99.3311
20
-148.139
11
99.4263
21
-148.044
0
LINE
8
BLACK
6
CONTINUOUS
10
99.4263
20
-148.044
11
99.6168
21
-147.949
0
LINE
8
BLACK
6
CONTINUOUS
10
101.141
20
-149.949
11
101.141
21
-148.615
0
LINE
8
BLACK
6
CONTINUOUS
10
101.141
20
-148.806
11
101.236
21
-148.711
0
LINE
8
BLACK
6
CONTINUOUS
10
101.236
20
-148.711
11
101.426
21
-148.615
0
LINE
8
BLACK
6
CONTINUOUS
10
101.426
20
-148.615
11
101.712
21
-148.615
0
LINE
8
BLACK
6
CONTINUOUS
10
101.712
20
-148.615
11
101.903
21
-148.711
0
LINE
8
BLACK
6
CONTINUOUS
10
101.903
20
-148.711
11
101.998
21
-148.901
0
LINE
8
BLACK
6
CONTINUOUS
10
101.998
20
-148.901
11
101.998
21
-149.949
0
LINE
8
BLACK
6
CONTINUOUS
10
101.998
20
-148.901
11
102.093
21
-148.711
0
LINE
8
BLACK
6
CONTINUOUS
10
102.093
20
-148.711
11
102.283
21
-148.615
0
LINE
8
BLACK
6
CONTINUOUS
10
102.283
20
-148.615
11
102.569
21
-148.615
0
LINE
8
BLACK
6
CONTINUOUS
10
102.569
20
-148.615
11
102.76
21
-148.711
0
LINE
8
BLACK
6
CONTINUOUS
10
102.76
20
-148.711
11
102.855
21
-148.901
0
LINE
8
BLACK
6
CONTINUOUS
10
102.855
20
-148.901
11
102.855
21
-149.949
0
LINE
8
BLACK
6
CONTINUOUS
10
103.807
20
-149.949
11
103.807
21
-148.615
0
LINE
8
BLACK
6
CONTINUOUS
10
103.807
20
-148.806
11
103.903
21
-148.711
0
LINE
8
BLACK
6
CONTINUOUS
10
103.903
20
-148.711
11
104.093
21
-148.615
0
LINE
8
BLACK
6
CONTINUOUS
10
104.093
20
-148.615
11
104.379
21
-148.615
0
LINE
8
BLACK
6
CONTINUOUS
10
104.379
20
-148.615
11
104.569
21
-148.711
0
LINE
8
BLACK
6
CONTINUOUS
10
104.569
20
-148.711
11
104.664
21
-148.901
0
LINE
8
BLACK
6
CONTINUOUS
10
104.664
20
-148.901
11
104.664
21
-149.949
0
LINE
8
BLACK
6
CONTINUOUS
10
104.664
20
-148.901
11
104.76
21
-148.711
0
LINE
8
BLACK
6
CONTINUOUS
10
104.76
20
-148.711
11
104.95
21
-148.615
0
LINE
8
BLACK
6
CONTINUOUS
10
104.95
20
-148.615
11
105.236
21
-148.615
0
LINE
8
BLACK
6
CONTINUOUS
10
105.236
20
-148.615
11
105.426
21
-148.711
0
LINE
8
BLACK
6
CONTINUOUS
10
105.426
20
-148.711
11
105.522
21
-148.901
0
LINE
8
BLACK
6
CONTINUOUS
10
105.522
20
-148.901
11
105.522
21
-149.949
0
LINE
8
BLACK
6
CONTINUOUS
10
109.426
20
-147.854
11
107.712
21
-150.425
0
LINE
8
BLACK
6
CONTINUOUS
10
111.998
20
-147.949
11
112.188
21
-147.949
0
LINE
8
BLACK
6
CONTINUOUS
10
112.188
20
-147.949
11
112.379
21
-148.044
0
LINE
8
BLACK
6
CONTINUOUS
10
112.379
20
-148.044
11
112.474
21
-148.139
0
LINE
8
BLACK
6
CONTINUOUS
10
112.474
20
-148.139
11
112.569
21
-148.33
0
LINE
8
BLACK
6
CONTINUOUS
10
112.569
20
-148.33
11
112.664
21
-148.711
0
LINE
8
BLACK
6
CONTINUOUS
10
112.664
20
-148.711
11
112.664
21
-149.187
0
LINE
8
BLACK
6
CONTINUOUS
10
112.664
20
-149.187
11
112.569
21
-149.568
0
LINE
8
BLACK
6
CONTINUOUS
10
112.569
20
-149.568
11
112.474
21
-149.758
0
LINE
8
BLACK
6
CONTINUOUS
10
112.474
20
-149.758
11
112.379
21
-149.854
0
LINE
8
BLACK
6
CONTINUOUS
10
112.379
20
-149.854
11
112.188
21
-149.949
0
LINE
8
BLACK
6
CONTINUOUS
10
112.188
20
-149.949
11
111.998
21
-149.949
0
LINE
8
BLACK
6
CONTINUOUS
10
111.998
20
-149.949
11
111.807
21
-149.854
0
LINE
8
BLACK
6
CONTINUOUS
10
111.807
20
-149.854
11
111.712
21
-149.758
0
LINE
8
BLACK
6
CONTINUOUS
10
111.712
20
-149.758
11
111.617
21
-149.568
0
LINE
8
BLACK
6
CONTINUOUS
10
111.617
20
-149.568
11
111.522
21
-149.187
0
LINE
8
BLACK
6
CONTINUOUS
10
111.522
20
-149.187
11
111.522
21
-148.711
0
LINE
8
BLACK
6
CONTINUOUS
10
111.522
20
-148.711
11
111.617
21
-148.33
0
LINE
8
BLACK
6
CONTINUOUS
10
111.617
20
-148.33
11
111.712
21
-148.139
0
LINE
8
BLACK
6
CONTINUOUS
10
111.712
20
-148.139
11
111.807
21
-148.044
0
LINE
8
BLACK
6
CONTINUOUS
10
111.807
20
-148.044
11
111.998
21
-147.949
0
LINE
8
BLACK
6
CONTINUOUS
10
113.522
20
-149.758
11
113.617
21
-149.854
0
LINE
8
BLACK
6
CONTINUOUS
10
113.617
20
-149.854
11
113.522
21
-149.949
0
LINE
8
BLACK
6
CONTINUOUS
10
113.522
20
-149.949
11
113.426
21
-149.854
0
LINE
8
BLACK
6
CONTINUOUS
10
113.426
20
-149.854
11
113.522
21
-149.758
0
LINE
8
BLACK
6
CONTINUOUS
10
113.522
20
-149.758
11
113.522
21
-149.949
0
LINE
8
BLACK
6
CONTINUOUS
10
114.855
20
-147.949
11
115.045
21
-147.949
0
LINE
8
BLACK
6
CONTINUOUS
10
115.045
20
-147.949
11
115.236
21
-148.044
0
LINE
8
BLACK
6
CONTINUOUS
10
115.236
20
-148.044
11
115.331
21
-148.139
0
LINE
8
BLACK
6
CONTINUOUS
10
115.331
20
-148.139
11
115.426
21
-148.33
0
LINE
8
BLACK
6
CONTINUOUS
10
115.426
20
-148.33
11
115.522
21
-148.711
0
LINE
8
BLACK
6
CONTINUOUS
10
115.522
20
-148.711
11
115.522
21
-149.187
0
LINE
8
BLACK
6
CONTINUOUS
10
115.522
20
-149.187
11
115.426
21
-149.568
0
LINE
8
BLACK
6
CONTINUOUS
10
115.426
20
-149.568
11
115.331
21
-149.758
0
LINE
8
BLACK
6
CONTINUOUS
10
115.331
20
-149.758
11
115.236
21
-149.854
0
LINE
8
BLACK
6
CONTINUOUS
10
115.236
20
-149.854
11
115.045
21
-149.949
0
LINE
8
BLACK
6
CONTINUOUS
10
115.045
20
-149.949
11
114.855
21
-149.949
0
LINE
8
BLACK
6
CONTINUOUS
10
114.855
20
-149.949
11
114.664
21
-149.854
0
LINE
8
BLACK
6
CONTINUOUS
10
114.664
20
-149.854
11
114.569
21
-149.758
0
LINE
8
BLACK
6
CONTINUOUS
10
114.569
20
-149.758
11
114.474
21
-149.568
0
LINE
8
BLACK
6
CONTINUOUS
10
114.474
20
-149.568
11
114.379
21
-149.187
0
LINE
8
BLACK
6
CONTINUOUS
10
114.379
20
-149.187
11
114.379
21
-148.711
0
LINE
8
BLACK
6
CONTINUOUS
10
114.379
20
-148.711
11
114.474
21
-148.33
0
LINE
8
BLACK
6
CONTINUOUS
10
114.474
20
-148.33
11
114.569
21
-148.139
0
LINE
8
BLACK
6
CONTINUOUS
10
114.569
20
-148.139
11
114.664
21
-148.044
0
LINE
8
BLACK
6
CONTINUOUS
10
114.664
20
-148.044
11
114.855
21
-147.949
0
LINE
8
BLACK
6
CONTINUOUS
10
117.331
20
-147.949
11
116.379
21
-147.949
0
LINE
8
BLACK
6
CONTINUOUS
10
116.379
20
-147.949
11
116.283
21
-148.901
0
LINE
8
BLACK
6
CONTINUOUS
10
116.283
20
-148.901
11
116.379
21
-148.806
0
LINE
8
BLACK
6
CONTINUOUS
10
116.379
20
-148.806
11
116.569
21
-148.711
0
LINE
8
BLACK
6
CONTINUOUS
10
116.569
20
-148.711
11
117.045
21
-148.711
0
LINE
8
BLACK
6
CONTINUOUS
10
117.045
20
-148.711
11
117.236
21
-148.806
0
LINE
8
BLACK
6
CONTINUOUS
10
117.236
20
-148.806
11
117.331
21
-148.901
0
LINE
8
BLACK
6
CONTINUOUS
10
117.331
20
-148.901
11
117.426
21
-149.092
0
LINE
8
BLACK
6
CONTINUOUS
10
117.426
20
-149.092
11
117.426
21
-149.568
0
LINE
8
BLACK
6
CONTINUOUS
10
117.426
20
-149.568
11
117.331
21
-149.758
0
LINE
8
BLACK
6
CONTINUOUS
10
117.331
20
-149.758
11
117.236
21
-149.854
0
LINE
8
BLACK
6
CONTINUOUS
10
117.236
20
-149.854
11
117.045
21
-149.949
0
LINE
8
BLACK
6
CONTINUOUS
10
117.045
20
-149.949
11
116.569
21
-149.949
0
LINE
8
BLACK
6
CONTINUOUS
10
116.569
20
-149.949
11
116.379
21
-149.854
0
LINE
8
BLACK
6
CONTINUOUS
10
116.379
20
-149.854
11
116.283
21
-149.758
0
LINE
8
BLACK
6
CONTINUOUS
10
118.379
20
-149.949
11
118.76
21
-149.949
0
LINE
8
BLACK
6
CONTINUOUS
10
118.76
20
-149.949
11
118.95
21
-149.854
0
LINE
8
BLACK
6
CONTINUOUS
10
118.95
20
-149.854
11
119.045
21
-149.758
0
LINE
8
BLACK
6
CONTINUOUS
10
119.045
20
-149.758
11
119.236
21
-149.473
0
LINE
8
BLACK
6
CONTINUOUS
10
119.236
20
-149.473
11
119.331
21
-149.092
0
LINE
8
BLACK
6
CONTINUOUS
10
119.331
20
-149.092
11
119.331
21
-148.33
0
LINE
8
BLACK
6
CONTINUOUS
10
119.331
20
-148.33
11
119.236
21
-148.139
0
LINE
8
BLACK
6
CONTINUOUS
10
119.236
20
-148.139
11
119.141
21
-148.044
0
LINE
8
BLACK
6
CONTINUOUS
10
119.141
20
-148.044
11
118.95
21
-147.949
0
LINE
8
BLACK
6
CONTINUOUS
10
118.95
20
-147.949
11
118.569
21
-147.949
0
LINE
8
BLACK
6
CONTINUOUS
10
118.569
20
-147.949
11
118.379
21
-148.044
0
LINE
8
BLACK
6
CONTINUOUS
10
118.379
20
-148.044
11
118.283
21
-148.139
0
LINE
8
BLACK
6
CONTINUOUS
10
118.283
20
-148.139
11
118.188
21
-148.33
0
LINE
8
BLACK
6
CONTINUOUS
10
118.188
20
-148.33
11
118.188
21
-148.806
0
LINE
8
BLACK
6
CONTINUOUS
10
118.188
20
-148.806
11
118.283
21
-148.996
0
LINE
8
BLACK
6
CONTINUOUS
10
118.283
20
-148.996
11
118.379
21
-149.092
0
LINE
8
BLACK
6
CONTINUOUS
10
118.379
20
-149.092
11
118.569
21
-149.187
0
LINE
8
BLACK
6
CONTINUOUS
10
118.569
20
-149.187
11
118.95
21
-149.187
0
LINE
8
BLACK
6
CONTINUOUS
10
118.95
20
-149.187
11
119.141
21
-149.092
0
LINE
8
BLACK
6
CONTINUOUS
10
119.141
20
-149.092
11
119.236
21
-148.996
0
LINE
8
BLACK
6
CONTINUOUS
10
119.236
20
-148.996
11
119.331
21
-148.806
0
LINE
8
BLACK
6
CONTINUOUS
10
121.236
20
-149.949
11
120.093
21
-149.949
0
LINE
8
BLACK
6
CONTINUOUS
10
120.664
20
-149.949
11
120.664
21
-147.949
0
LINE
8
BLACK
6
CONTINUOUS
10
120.664
20
-147.949
11
120.474
21
-148.234
0
LINE
8
BLACK
6
CONTINUOUS
10
120.474
20
-148.234
11
120.283
21
-148.425
0
LINE
8
BLACK
6
CONTINUOUS
10
120.283
20
-148.425
11
120.093
21
-148.52
0
LINE
8
BLACK
6
CONTINUOUS
10
121.998
20
-147.949
11
121.998
21
-148.33
0
LINE
8
BLACK
6
CONTINUOUS
10
122.76
20
-147.949
11
122.76
21
-148.33
0
LINE
8
BLACK
6
CONTINUOUS
10
125.712
20
-150.711
11
125.617
21
-150.615
0
LINE
8
BLACK
6
CONTINUOUS
10
125.617
20
-150.615
11
125.426
21
-150.33
0
LINE
8
BLACK
6
CONTINUOUS
10
125.426
20
-150.33
11
125.331
21
-150.139
0
LINE
8
BLACK
6
CONTINUOUS
10
125.331
20
-150.139
11
125.236
21
-149.854
0
LINE
8
BLACK
6
CONTINUOUS
10
125.236
20
-149.854
11
125.141
21
-149.377
0
LINE
8
BLACK
6
CONTINUOUS
10
125.141
20
-149.377
11
125.141
21
-148.996
0
LINE
8
BLACK
6
CONTINUOUS
10
125.141
20
-148.996
11
125.236
21
-148.52
0
LINE
8
BLACK
6
CONTINUOUS
10
125.236
20
-148.52
11
125.331
21
-148.234
0
LINE
8
BLACK
6
CONTINUOUS
10
125.331
20
-148.234
11
125.426
21
-148.044
0
LINE
8
BLACK
6
CONTINUOUS
10
125.426
20
-148.044
11
125.617
21
-147.758
0
LINE
8
BLACK
6
CONTINUOUS
10
125.617
20
-147.758
11
125.712
21
-147.663
0
LINE
8
BLACK
6
CONTINUOUS
10
126.379
20
-148.139
11
126.474
21
-148.044
0
LINE
8
BLACK
6
CONTINUOUS
10
126.474
20
-148.044
11
126.664
21
-147.949
0
LINE
8
BLACK
6
CONTINUOUS
10
126.664
20
-147.949
11
127.141
21
-147.949
0
LINE
8
BLACK
6
CONTINUOUS
10
127.141
20
-147.949
11
127.331
21
-148.044
0
LINE
8
BLACK
6
CONTINUOUS
10
127.331
20
-148.044
11
127.426
21
-148.139
0
LINE
8
BLACK
6
CONTINUOUS
10
127.426
20
-148.139
11
127.522
21
-148.33
0
LINE
8
BLACK
6
CONTINUOUS
10
127.522
20
-148.33
11
127.522
21
-148.52
0
LINE
8
BLACK
6
CONTINUOUS
10
127.522
20
-148.52
11
127.426
21
-148.806
0
LINE
8
BLACK
6
CONTINUOUS
10
127.426
20
-148.806
11
126.283
21
-149.949
0
LINE
8
BLACK
6
CONTINUOUS
10
126.283
20
-149.949
11
127.522
21
-149.949
0
LINE
8
BLACK
6
CONTINUOUS
10
129.903
20
-149.949
11
129.903
21
-147.949
0
LINE
8
BLACK
6
CONTINUOUS
10
130.76
20
-149.949
11
130.76
21
-148.901
0
LINE
8
BLACK
6
CONTINUOUS
10
130.76
20
-148.901
11
130.664
21
-148.711
0
LINE
8
BLACK
6
CONTINUOUS
10
130.664
20
-148.711
11
130.474
21
-148.615
0
LINE
8
BLACK
6
CONTINUOUS
10
130.474
20
-148.615
11
130.188
21
-148.615
0
LINE
8
BLACK
6
CONTINUOUS
10
130.188
20
-148.615
11
129.998
21
-148.711
0
LINE
8
BLACK
6
CONTINUOUS
10
129.998
20
-148.711
11
129.903
21
-148.806
0
LINE
8
BLACK
6
CONTINUOUS
10
131.998
20
-149.949
11
131.807
21
-149.854
0
LINE
8
BLACK
6
CONTINUOUS
10
131.807
20
-149.854
11
131.712
21
-149.758
0
LINE
8
BLACK
6
CONTINUOUS
10
131.712
20
-149.758
11
131.617
21
-149.568
0
LINE
8
BLACK
6
CONTINUOUS
10
131.617
20
-149.568
11
131.617
21
-148.996
0
LINE
8
BLACK
6
CONTINUOUS
10
131.617
20
-148.996
11
131.712
21
-148.806
0
LINE
8
BLACK
6
CONTINUOUS
10
131.712
20
-148.806
11
131.807
21
-148.711
0
LINE
8
BLACK
6
CONTINUOUS
10
131.807
20
-148.711
11
131.998
21
-148.615
0
LINE
8
BLACK
6
CONTINUOUS
10
131.998
20
-148.615
11
132.283
21
-148.615
0
LINE
8
BLACK
6
CONTINUOUS
10
132.283
20
-148.615
11
132.474
21
-148.711
0
LINE
8
BLACK
6
CONTINUOUS
10
132.474
20
-148.711
11
132.569
21
-148.806
0
LINE
8
BLACK
6
CONTINUOUS
10
132.569
20
-148.806
11
132.664
21
-148.996
0
LINE
8
BLACK
6
CONTINUOUS
10
132.664
20
-148.996
11
132.664
21
-149.568
0
LINE
8
BLACK
6
CONTINUOUS
10
132.664
20
-149.568
11
132.569
21
-149.758
0
LINE
8
BLACK
6
CONTINUOUS
10
132.569
20
-149.758
11
132.474
21
-149.854
0
LINE
8
BLACK
6
CONTINUOUS
10
132.474
20
-149.854
11
132.283
21
-149.949
0
LINE
8
BLACK
6
CONTINUOUS
10
132.283
20
-149.949
11
131.998
21
-149.949
0
LINE
8
BLACK
6
CONTINUOUS
10
133.807
20
-149.949
11
133.617
21
-149.854
0
LINE
8
BLACK
6
CONTINUOUS
10
133.617
20
-149.854
11
133.522
21
-149.663
0
LINE
8
BLACK
6
CONTINUOUS
10
133.522
20
-149.663
11
133.522
21
-147.949
0
LINE
8
BLACK
6
CONTINUOUS
10
135.331
20
-149.854
11
135.141
21
-149.949
0
LINE
8
BLACK
6
CONTINUOUS
10
135.141
20
-149.949
11
134.76
21
-149.949
0
LINE
8
BLACK
6
CONTINUOUS
10
134.76
20
-149.949
11
134.569
21
-149.854
0
LINE
8
BLACK
6
CONTINUOUS
10
134.569
20
-149.854
11
134.474
21
-149.663
0
LINE
8
BLACK
6
CONTINUOUS
10
134.474
20
-149.663
11
134.474
21
-148.901
0
LINE
8
BLACK
6
CONTINUOUS
10
134.474
20
-148.901
11
134.569
21
-148.711
0
LINE
8
BLACK
6
CONTINUOUS
10
134.569
20
-148.711
11
134.76
21
-148.615
0
LINE
8
BLACK
6
CONTINUOUS
10
134.76
20
-148.615
11
135.141
21
-148.615
0
LINE
8
BLACK
6
CONTINUOUS
10
135.141
20
-148.615
11
135.331
21
-148.711
0
LINE
8
BLACK
6
CONTINUOUS
10
135.331
20
-148.711
11
135.426
21
-148.901
0
LINE
8
BLACK
6
CONTINUOUS
10
135.426
20
-148.901
11
135.426
21
-149.092
0
LINE
8
BLACK
6
CONTINUOUS
10
135.426
20
-149.092
11
134.474
21
-149.282
0
LINE
8
BLACK
6
CONTINUOUS
10
136.188
20
-149.854
11
136.379
21
-149.949
0
LINE
8
BLACK
6
CONTINUOUS
10
136.379
20
-149.949
11
136.76
21
-149.949
0
LINE
8
BLACK
6
CONTINUOUS
10
136.76
20
-149.949
11
136.95
21
-149.854
0
LINE
8
BLACK
6
CONTINUOUS
10
136.95
20
-149.854
11
137.045
21
-149.663
0
LINE
8
BLACK
6
CONTINUOUS
10
137.045
20
-149.663
11
137.045
21
-149.568
0
LINE
8
BLACK
6
CONTINUOUS
10
137.045
20
-149.568
11
136.95
21
-149.377
0
LINE
8
BLACK
6
CONTINUOUS
10
136.95
20
-149.377
11
136.76
21
-149.282
0
LINE
8
BLACK
6
CONTINUOUS
10
136.76
20
-149.282
11
136.474
21
-149.282
0
LINE
8
BLACK
6
CONTINUOUS
10
136.474
20
-149.282
11
136.283
21
-149.187
0
LINE
8
BLACK
6
CONTINUOUS
10
136.283
20
-149.187
11
136.188
21
-148.996
0
LINE
8
BLACK
6
CONTINUOUS
10
136.188
20
-148.996
11
136.188
21
-148.901
0
LINE
8
BLACK
6
CONTINUOUS
10
136.188
20
-148.901
11
136.283
21
-148.711
0
LINE
8
BLACK
6
CONTINUOUS
10
136.283
20
-148.711
11
136.474
21
-148.615
0
LINE
8
BLACK
6
CONTINUOUS
10
136.474
20
-148.615
11
136.76
21
-148.615
0
LINE
8
BLACK
6
CONTINUOUS
10
136.76
20
-148.615
11
136.95
21
-148.711
0
LINE
8
BLACK
6
CONTINUOUS
10
137.712
20
-150.711
11
137.807
21
-150.615
0
LINE
8
BLACK
6
CONTINUOUS
10
137.807
20
-150.615
11
137.998
21
-150.33
0
LINE
8
BLACK
6
CONTINUOUS
10
137.998
20
-150.33
11
138.093
21
-150.139
0
LINE
8
BLACK
6
CONTINUOUS
10
138.093
20
-150.139
11
138.188
21
-149.854
0
LINE
8
BLACK
6
CONTINUOUS
10
138.188
20
-149.854
11
138.283
21
-149.377
0
LINE
8
BLACK
6
CONTINUOUS
10
138.283
20
-149.377
11
138.283
21
-148.996
0
LINE
8
BLACK
6
CONTINUOUS
10
138.283
20
-148.996
11
138.188
21
-148.52
0
LINE
8
BLACK
6
CONTINUOUS
10
138.188
20
-148.52
11
138.093
21
-148.234
0
LINE
8
BLACK
6
CONTINUOUS
10
138.093
20
-148.234
11
137.998
21
-148.044
0
LINE
8
BLACK
6
CONTINUOUS
10
137.998
20
-148.044
11
137.807
21
-147.758
0
LINE
8
BLACK
6
CONTINUOUS
10
137.807
20
-147.758
11
137.712
21
-147.663
  0
ENDSEC
  0
EOF
