%TF.GenerationSoftware,KiCad,Pcbnew,6.0.10+dfsg-1~bpo11+1*%
%TF.CreationDate,2023-01-22T00:38:30+00:00*%
%TF.ProjectId,cc-19-badge,63632d31-392d-4626-9164-67652e6b6963,rev?*%
%TF.SameCoordinates,Original*%
%TF.FileFunction,Legend,Top*%
%TF.FilePolarity,Positive*%
%FSLAX45Y45*%
G04 Gerber Fmt 4.5, Leading zero omitted, Abs format (unit mm)*
G04 Created by KiCad (PCBNEW 6.0.10+dfsg-1~bpo11+1) date 2023-01-22 00:38:30*
%MOMM*%
%LPD*%
G01*
G04 APERTURE LIST*
%TA.AperFunction,Profile*%
%ADD10C,0.100000*%
%TD*%
%ADD11C,0.150000*%
G04 APERTURE END LIST*
D10*
X9000000Y-4000000D02*
X14400000Y-4000000D01*
X9000000Y-14000000D02*
X14400000Y-14000000D01*
X14400000Y-4000000D02*
X14400000Y-14000000D01*
X9000000Y-4000000D02*
X9000000Y-14000000D01*
D11*
X8988762Y-7248552D02*
X9217333Y-7248552D01*
X9103048Y-7648552D02*
X9103048Y-7248552D01*
X9350667Y-7648552D02*
X9350667Y-7248552D01*
X9522095Y-7648552D02*
X9522095Y-7439028D01*
X9503048Y-7400933D01*
X9464952Y-7381886D01*
X9407810Y-7381886D01*
X9369714Y-7400933D01*
X9350667Y-7419981D01*
X9884000Y-7381886D02*
X9884000Y-7648552D01*
X9712571Y-7381886D02*
X9712571Y-7591409D01*
X9731619Y-7629505D01*
X9769714Y-7648552D01*
X9826857Y-7648552D01*
X9864952Y-7629505D01*
X9884000Y-7610457D01*
X10074476Y-7648552D02*
X10074476Y-7381886D01*
X10074476Y-7419981D02*
X10093524Y-7400933D01*
X10131619Y-7381886D01*
X10188762Y-7381886D01*
X10226857Y-7400933D01*
X10245905Y-7439028D01*
X10245905Y-7648552D01*
X10245905Y-7439028D02*
X10264952Y-7400933D01*
X10303048Y-7381886D01*
X10360190Y-7381886D01*
X10398286Y-7400933D01*
X10417333Y-7439028D01*
X10417333Y-7648552D01*
X10607810Y-7648552D02*
X10607810Y-7248552D01*
X10607810Y-7400933D02*
X10645905Y-7381886D01*
X10722095Y-7381886D01*
X10760190Y-7400933D01*
X10779238Y-7419981D01*
X10798286Y-7458076D01*
X10798286Y-7572362D01*
X10779238Y-7610457D01*
X10760190Y-7629505D01*
X10722095Y-7648552D01*
X10645905Y-7648552D01*
X10607810Y-7629505D01*
X10969714Y-7381886D02*
X10969714Y-7648552D01*
X10969714Y-7419981D02*
X10988762Y-7400933D01*
X11026857Y-7381886D01*
X11084000Y-7381886D01*
X11122095Y-7400933D01*
X11141143Y-7439028D01*
X11141143Y-7648552D01*
X11503048Y-7648552D02*
X11503048Y-7439028D01*
X11484000Y-7400933D01*
X11445905Y-7381886D01*
X11369714Y-7381886D01*
X11331619Y-7400933D01*
X11503048Y-7629505D02*
X11464952Y-7648552D01*
X11369714Y-7648552D01*
X11331619Y-7629505D01*
X11312571Y-7591409D01*
X11312571Y-7553314D01*
X11331619Y-7515219D01*
X11369714Y-7496171D01*
X11464952Y-7496171D01*
X11503048Y-7477124D01*
X11693524Y-7648552D02*
X11693524Y-7381886D01*
X11693524Y-7248552D02*
X11674476Y-7267600D01*
X11693524Y-7286648D01*
X11712571Y-7267600D01*
X11693524Y-7248552D01*
X11693524Y-7286648D01*
X11941143Y-7648552D02*
X11903048Y-7629505D01*
X11884000Y-7591409D01*
X11884000Y-7248552D01*
X12341143Y-7248552D02*
X12569714Y-7248552D01*
X12455428Y-7648552D02*
X12455428Y-7248552D01*
X12855428Y-7629505D02*
X12817333Y-7648552D01*
X12741143Y-7648552D01*
X12703048Y-7629505D01*
X12684000Y-7591409D01*
X12684000Y-7439028D01*
X12703048Y-7400933D01*
X12741143Y-7381886D01*
X12817333Y-7381886D01*
X12855428Y-7400933D01*
X12874476Y-7439028D01*
X12874476Y-7477124D01*
X12684000Y-7515219D01*
X13026857Y-7629505D02*
X13064952Y-7648552D01*
X13141143Y-7648552D01*
X13179238Y-7629505D01*
X13198286Y-7591409D01*
X13198286Y-7572362D01*
X13179238Y-7534267D01*
X13141143Y-7515219D01*
X13084000Y-7515219D01*
X13045905Y-7496171D01*
X13026857Y-7458076D01*
X13026857Y-7439028D01*
X13045905Y-7400933D01*
X13084000Y-7381886D01*
X13141143Y-7381886D01*
X13179238Y-7400933D01*
X13312571Y-7381886D02*
X13464952Y-7381886D01*
X13369714Y-7248552D02*
X13369714Y-7591409D01*
X13388762Y-7629505D01*
X13426857Y-7648552D01*
X13464952Y-7648552D01*
X13598286Y-7648552D02*
X13598286Y-7381886D01*
X13598286Y-7248552D02*
X13579238Y-7267600D01*
X13598286Y-7286648D01*
X13617333Y-7267600D01*
X13598286Y-7248552D01*
X13598286Y-7286648D01*
X13788762Y-7381886D02*
X13788762Y-7648552D01*
X13788762Y-7419981D02*
X13807809Y-7400933D01*
X13845905Y-7381886D01*
X13903048Y-7381886D01*
X13941143Y-7400933D01*
X13960190Y-7439028D01*
X13960190Y-7648552D01*
X14322095Y-7381886D02*
X14322095Y-7705695D01*
X14303048Y-7743790D01*
X14284000Y-7762838D01*
X14245905Y-7781886D01*
X14188762Y-7781886D01*
X14150667Y-7762838D01*
X14322095Y-7629505D02*
X14284000Y-7648552D01*
X14207809Y-7648552D01*
X14169714Y-7629505D01*
X14150667Y-7610457D01*
X14131619Y-7572362D01*
X14131619Y-7458076D01*
X14150667Y-7419981D01*
X14169714Y-7400933D01*
X14207809Y-7381886D01*
X14284000Y-7381886D01*
X14322095Y-7400933D01*
%LPC*%
M02*
